<svg width="36" height="40" viewBox="0 0 36 40" fill="none" xmlns="http://www.w3.org/2000/svg">
<path d="M21.4184 4.585L29.6434 9.335C31.0034 7.90334 33.2651 7.84667 34.6967 9.20667C34.9434 9.44 35.1534 9.70834 35.3251 10.0017C36.3067 11.715 35.7117 13.9 33.9984 14.8817C33.7084 15.0483 33.3967 15.1733 33.0684 15.2533V24.7517C34.9784 25.2067 36.1584 27.1233 35.7017 29.0333C35.6217 29.3733 35.4901 29.7 35.3151 30.0017C34.3284 31.7067 32.1467 32.2917 30.4367 31.305C30.1101 31.1167 29.8117 30.8733 29.5601 30.59L21.3851 35.31C22.0051 37.1833 20.9884 39.2017 19.1167 39.82C18.7551 39.9383 18.3801 40 18.0001 40C16.0317 40.0017 14.4351 38.4083 14.4334 36.44C14.4334 36.0983 14.4817 35.7567 14.5801 35.425L6.35339 30.68C4.99339 32.1033 2.73506 32.1583 1.31006 30.7967C-0.113275 29.4367 -0.166608 27.1783 1.19339 25.7533C1.66506 25.2583 2.27006 24.91 2.93339 24.7483L2.93506 15.25C1.01839 14.79 -0.161608 12.8617 0.300059 10.9433C0.378392 10.6133 0.505059 10.295 0.673392 10C1.66006 8.29333 3.84339 7.71 5.55173 8.69667C5.84673 8.865 6.11673 9.07667 6.35173 9.325L14.5817 4.575C14.0217 2.68667 15.1001 0.705001 16.9834 0.146668C17.3117 0.0483346 17.6567 1.30771e-06 18.0001 1.30771e-06C19.9684 -0.00166536 21.5651 1.59 21.5667 3.55667C21.5684 3.905 21.5167 4.25333 21.4184 4.585ZM20.5601 6.04667C20.5284 6.08167 20.4984 6.11167 20.4634 6.14333L31.2317 24.7933C31.2751 24.7783 31.3251 24.7667 31.3684 24.755V15.2433C29.4601 14.7717 28.2984 12.84 28.7717 10.93C28.7817 10.89 28.7917 10.8483 28.8034 10.81L20.5601 6.04667ZM15.5351 6.145L15.4351 6.045L7.19173 10.7983C7.73673 12.69 6.64673 14.6617 4.75673 15.2067C4.71339 15.22 4.67173 15.23 4.63006 15.2417V24.755L4.77006 24.7933L15.5384 6.14333L15.5351 6.145ZM18.9951 6.99C18.3451 7.17667 17.6567 7.17667 17.0084 6.99L6.24173 25.6383C6.73173 26.11 7.07839 26.7133 7.24173 27.3733H28.7601C28.9217 26.71 29.2717 26.105 29.7651 25.6333L18.9951 6.99ZM20.6384 34.035L28.8267 29.305C28.8017 29.2267 28.7817 29.1483 28.7634 29.0683H7.23672L7.20173 29.2067L15.4334 33.96C16.0801 33.2867 16.9901 32.8717 18.0001 32.8717C19.0451 32.8717 19.9834 33.32 20.6384 34.035Z" fill="#A8A8A8"/>
</svg>
