<svg width="40" height="40" viewBox="0 0 40 40" fill="none" xmlns="http://www.w3.org/2000/svg">
<path d="M29.6884 37.4993C29.54 37.5776 29.5484 37.6093 29.6967 37.5343C29.7401 37.5157 29.7797 37.4891 29.8134 37.456C29.8134 37.4293 29.81 37.4326 29.6884 37.4993ZM29.985 37.3426C29.915 37.3976 29.915 37.401 30 37.3576C30.0467 37.3343 30.0867 37.3076 30.0867 37.2993C30.0867 37.2676 30.0667 37.276 29.985 37.3426ZM30.18 37.2243C30.11 37.2793 30.11 37.2826 30.195 37.2393C30.2417 37.216 30.2817 37.1893 30.2817 37.181C30.2817 37.1493 30.2617 37.1576 30.18 37.2243ZM30.375 37.1076C30.305 37.1626 30.305 37.166 30.39 37.1226C30.4367 37.0993 30.4767 37.0726 30.4767 37.0643C30.4767 37.0326 30.4567 37.041 30.375 37.1076ZM30.645 36.9326C30.5084 37.0193 30.465 37.0776 30.5867 37.011C30.6734 36.9609 30.8134 36.8543 30.79 36.851C30.7389 36.8729 30.6903 36.9003 30.645 36.9326ZM18.69 0.00594694C18.6034 0.0142803 18.33 0.0409469 18.0834 0.0609469C12.4034 0.572614 7.08171 3.63761 3.71171 8.34928C1.84865 10.9354 0.637653 13.9331 0.181709 17.0876C0.021709 18.1859 0.00170898 18.511 0.00170898 20.0009C0.00170898 21.4909 0.021709 21.8143 0.181709 22.9143C1.26838 30.4243 6.61338 36.7343 13.8617 39.0726C15.16 39.491 16.5284 39.776 18.0834 39.9476C18.69 40.0143 21.3084 40.0143 21.915 39.9476C24.6 39.651 26.8767 38.986 29.12 37.841C29.4634 37.6643 29.53 37.6176 29.4834 37.5793C28.3876 36.1314 27.302 34.6758 26.2267 33.2126L23.0284 28.8926L19.0217 22.9626C17.6895 20.9784 16.3445 19.0028 14.9867 17.0359C14.9717 17.0326 14.955 19.6676 14.9484 22.8843C14.9367 28.5176 14.9334 28.7443 14.8617 28.8776C14.7937 29.0334 14.6718 29.1594 14.5184 29.2326C14.3934 29.2959 14.2834 29.3076 13.6934 29.3076H13.0167L12.8367 29.1943C12.7257 29.1243 12.6353 29.0259 12.575 28.9093L12.4934 28.7326L12.5017 20.8943L12.5134 13.0526L12.635 12.9009C12.7168 12.8049 12.815 12.7242 12.925 12.6626C13.085 12.5843 13.1484 12.5759 13.825 12.5759C14.6234 12.5759 14.755 12.6076 14.9634 12.8343C16.5853 15.248 18.1936 17.6708 19.7884 20.1026C22.385 24.0393 25.9334 29.4143 27.6784 32.0543L30.845 36.851L31.005 36.7459C32.5288 35.7324 33.9104 34.52 35.1134 33.1409C37.6333 30.2571 39.2676 26.7073 39.82 22.9176C39.98 21.8193 40 21.4943 40 20.0043C40 18.5143 39.98 18.1909 39.82 17.0909C38.7334 9.58095 33.3884 3.27095 26.14 0.932614C24.7855 0.50136 23.3905 0.209295 21.9767 0.0609469C21.6017 0.0226136 19.0167 -0.0207197 18.6934 0.0109469L18.69 0.00594694ZM26.8767 12.1026C26.9699 12.1495 27.0529 12.2144 27.1207 12.2937C27.1885 12.373 27.2399 12.4649 27.2717 12.5643C27.3034 12.6659 27.31 14.8393 27.3034 19.7376L27.2917 26.7676L26.0517 24.8676L24.8084 22.9676V17.8576C24.8084 14.5543 24.8234 12.6976 24.8467 12.6076C24.875 12.5037 24.9238 12.4066 24.9902 12.3219C25.0566 12.2371 25.1393 12.1666 25.2334 12.1143C25.3934 12.0326 25.4517 12.0243 26.0667 12.0243C26.645 12.0243 26.7467 12.0326 26.8767 12.1026Z" fill="#A8A8A8"/>
</svg>
