<svg width="40" height="36" viewBox="0 0 40 36" fill="none" xmlns="http://www.w3.org/2000/svg">
<path d="M23.6573 17.8466C23.6573 19.8649 22.021 21.5013 20.0026 21.5013C17.9843 21.5013 16.3479 19.8649 16.3479 17.8466C16.3479 15.8282 17.9843 14.1919 20.0026 14.1919C22.021 14.1919 23.6573 15.8282 23.6573 17.8466Z" fill="#A8A8A8"/>
<path d="M20 31.2804C22.8694 34.0703 25.6975 35.7204 27.9771 35.7204C28.7242 35.7204 29.4316 35.563 30.0199 35.2101C32.0626 34.0305 32.8098 31.0833 32.1024 26.8785C31.9847 26.1314 31.8274 25.3858 31.6303 24.5989C32.4156 24.3636 33.123 24.1268 33.8304 23.8915C37.7999 22.359 40 20.2368 40 17.919C40 15.5615 37.7999 13.4393 33.8304 11.9465C33.123 11.6715 32.4156 11.4362 31.6303 11.2391C31.8274 10.4538 31.9847 9.70664 32.1024 8.95951C32.7701 4.67685 32.0244 1.68984 29.9801 0.510313C29.3904 0.157372 28.683 0 27.9374 0C25.6975 0 22.8281 1.65011 19.9603 4.44003C17.1306 1.65011 14.301 0 12.0229 0C11.2758 0 10.5684 0.157372 9.98014 0.510313C7.93736 1.68984 7.19022 4.63713 7.89763 8.84186C8.01528 9.589 8.17265 10.3346 8.36975 11.1215C7.58442 11.3568 6.87701 11.5936 6.1696 11.8289C2.20015 13.3613 0 15.4836 0 17.8014C0 20.1589 2.20015 22.2811 6.1696 23.7739C6.87701 24.0489 7.58442 24.2842 8.36975 24.4813C8.17265 25.2666 8.01528 26.0137 7.89763 26.7609C7.22995 30.9656 7.97556 33.9526 9.98014 35.0924C10.5699 35.4469 11.2773 35.6027 12.0229 35.6027C14.3025 35.6807 17.1322 34.0305 20 31.2804ZM17.7983 25.9755C18.5057 26.0153 19.2529 26.0153 19.9985 26.0153C20.7441 26.0153 21.4912 26.0153 22.1986 25.9755C21.4912 26.9183 20.7441 27.783 19.9985 28.6081C19.2513 27.783 18.5057 26.9183 17.7983 25.9755ZM12.9259 21.9282C13.3186 22.5959 13.673 23.2254 14.1054 23.8533C12.8877 23.6959 11.7479 23.4988 10.6478 23.2636C11.0023 22.2032 11.395 21.1016 11.8655 20.0015C12.1803 20.6295 12.5332 21.2987 12.9259 21.9267V21.9282ZM10.6463 12.4568C11.7464 12.2215 12.8862 12.0244 14.1039 11.8671C13.7112 12.4966 13.3186 13.1245 12.9244 13.7922C12.5302 14.4599 12.1772 15.0894 11.864 15.7571C11.3537 14.6173 10.9595 13.5172 10.6463 12.4553V12.4568ZM12.8083 17.8411C13.3186 16.7807 13.8686 15.7189 14.4981 14.6585C15.0879 13.6364 15.7555 12.6157 16.4232 11.5936C17.6028 11.5157 18.7808 11.4759 20 11.4759C21.2575 11.4759 22.437 11.5157 23.5768 11.5936C24.2842 12.6157 24.9121 13.6364 25.5019 14.6585C26.1314 15.7189 26.6814 16.7807 27.1917 17.8411C26.6814 18.9014 26.1314 19.9633 25.5019 21.0237C24.9121 22.0458 24.2445 23.0665 23.5768 24.0886C22.3973 24.1665 21.2193 24.2063 20 24.2063C18.7426 24.2063 17.563 24.1665 16.4232 24.0886C15.7158 23.0665 15.0879 22.0458 14.4981 21.0237C13.8686 19.9618 13.3186 18.9014 12.8083 17.8411ZM28.1742 15.7189L27.1138 13.754C26.7212 13.0863 26.3667 12.4568 25.9343 11.8289C27.152 11.9862 28.2918 12.1833 29.3919 12.4186C29.039 13.5187 28.6448 14.6188 28.1742 15.7204V15.7189ZM28.1742 19.9633C28.6463 21.0634 29.039 22.1635 29.3919 23.2254C28.2918 23.4606 27.152 23.6577 25.9343 23.8151C26.327 23.1856 26.7196 22.5577 27.1138 21.89C27.4683 21.3002 27.8212 20.6325 28.1742 19.9649V19.9633ZM29.0772 33.5997C28.7624 33.7968 28.3697 33.8747 27.9374 33.8747C26.0122 33.8747 23.615 32.3025 21.2575 29.945C22.3973 28.7273 23.4973 27.3506 24.5974 25.8182C26.4446 25.6608 28.2124 25.3858 29.864 24.9931C30.0611 25.7005 30.1788 26.4079 30.2964 27.1153C30.8464 30.4553 30.4141 32.8526 29.0787 33.5997H29.0772ZM31.1215 12.8892C35.5233 14.1467 38.1558 16.0718 38.1558 17.8411C38.1558 19.3736 36.3484 20.906 33.1658 22.1253C32.5363 22.3606 31.8304 22.5974 31.123 22.793C30.6127 21.181 29.9832 19.5309 29.1979 17.8411C29.9832 16.1513 30.6524 14.5011 31.123 12.8892H31.1215ZM27.9771 1.80749C28.4095 1.80749 28.7624 1.88541 29.1169 2.0825C30.4141 2.82964 30.8846 5.18716 30.3346 8.56684C30.217 9.23453 30.0596 9.94194 29.9022 10.6891C28.2521 10.3346 26.4828 10.0596 24.6356 9.86401C23.5752 8.33155 22.4354 6.95645 21.2956 5.7372C23.6532 3.41787 26.0504 1.80749 27.9756 1.80749H27.9771ZM22.2002 9.70664C21.4927 9.66692 20.7456 9.66692 20 9.66692C19.2544 9.66692 18.5073 9.66692 17.7999 9.70664C18.5073 8.76394 19.2544 7.89916 20 7.0741C20.7471 7.89916 21.4927 8.80366 22.2002 9.70664ZM10.9213 2.0825C11.2361 1.88541 11.6287 1.80749 12.0611 1.80749C13.9862 1.80749 16.3835 3.37968 18.741 5.7372C17.6012 6.95492 16.5011 8.33002 15.4011 9.86401C13.5539 10.0214 11.7861 10.2964 10.1345 10.6891C9.93736 9.98166 9.81971 9.27425 9.70206 8.56684C9.15203 5.22689 9.58442 2.86936 10.9198 2.0825H10.9213ZM8.87853 22.793C4.4767 21.5355 1.84416 19.6104 1.84416 17.8411C1.84416 16.3086 3.65164 14.7762 6.83423 13.5584C7.46371 13.3231 8.1696 13.0863 8.87701 12.8908C9.38732 14.5027 10.0168 16.1528 10.8021 17.8426C10.0168 19.5325 9.3476 21.2223 8.87701 22.7945L8.87853 22.793ZM9.70359 27.1153C9.82124 26.4477 9.97861 25.7403 10.136 24.9931C11.7861 25.3476 13.5554 25.6226 15.4026 25.8182C16.4629 27.3506 17.6028 28.7257 18.7426 29.945C16.385 32.2628 13.9878 33.8747 12.0626 33.8747C11.6303 33.8747 11.2773 33.7968 10.9228 33.5997C9.58594 32.8526 9.15508 30.4553 9.70512 27.1153H9.70359Z" fill="#A8A8A8"/>
</svg>
