<svg width="40" height="40" viewBox="0 0 40 40" fill="none" xmlns="http://www.w3.org/2000/svg">
<path d="M20 40C8.9543 40 0 31.0457 0 20C0 8.9543 8.9543 0 20 0C31.0457 0 40 8.9543 40 20C40 31.0457 31.0457 40 20 40ZM36.6667 20.1535H25.914V23.2108H33.2863C32.211 27.798 28.8306 31.6199 24.377 33.1498L6.71169 15.5663C8.55511 10.2145 13.7776 6.39192 19.7695 6.39192C24.3777 6.39192 28.5262 8.68652 31.1364 12.2027L33.4415 10.2158C30.3676 6.08485 25.453 3.33333 19.7695 3.33333C11.7816 3.33333 5.02285 8.99091 3.33333 16.4835L23.6089 36.6667C30.9812 34.8316 36.6667 28.1037 36.6667 20.1522V20.1535ZM3.33333 20C3.33333 24.3213 5.03079 28.4873 8.27176 31.7282C11.5127 34.9692 15.834 36.6667 20 36.6667L3.33333 20Z" fill="#A8A8A8"/>
</svg>
